<svg width="181" height="41" viewBox="0 0 181 41" fill="none" xmlns="http://www.w3.org/2000/svg">
<g id="Version=Basic, Color=Basic">
<path id="triangle" fill-rule="evenodd" clip-rule="evenodd" d="M23.6957 0.471302C24.1306 -0.224781 25.1604 -0.131798 25.4669 0.631238L31.6521 16.0279L25.2495 4.95745C25.0517 4.6156 24.5605 4.62571 24.3767 4.97541L8.09773 35.941C7.74304 36.6157 8.22576 37.43 8.98039 37.43H42.1521L2.1795 40.9917C0.529931 41.1387 -0.571308 39.3076 0.314292 37.8903L23.6957 0.471302Z" fill="#FF9B36"/>
<g id="Union">
<path d="M66.882 8.82373H65.882V33.8237H66.882V8.82373Z" fill="white"/>
<path d="M88.2547 18.8238H87.1707V13.3159H86.1688V12.4839H87.1707V11.8159C87.1707 11.3589 87.2527 10.9742 87.4168 10.6617C87.5848 10.3452 87.825 10.107 88.1375 9.94681C88.45 9.78275 88.8211 9.70071 89.2508 9.70071C89.3758 9.70071 89.5008 9.70853 89.6258 9.72415C89.7547 9.73978 89.8797 9.76321 90.0008 9.79446L89.9422 10.6792C89.8602 10.6597 89.7664 10.646 89.6609 10.6382C89.5594 10.6304 89.4578 10.6265 89.3563 10.6265C89.1258 10.6265 88.9266 10.6734 88.7586 10.7671C88.5945 10.857 88.4695 10.9898 88.3836 11.1656C88.2977 11.3413 88.2547 11.5581 88.2547 11.8159V12.4839H89.6024V13.3159H88.2547V18.8238Z" fill="white"/>
<path fill-rule="evenodd" clip-rule="evenodd" d="M167.964 18.9409C167.522 18.9409 167.122 18.8667 166.763 18.7183C166.407 18.5659 166.1 18.3531 165.843 18.0796C165.589 17.8062 165.393 17.482 165.257 17.107C165.12 16.732 165.052 16.3218 165.052 15.8765V15.6304C165.052 15.1148 165.128 14.6558 165.28 14.2534C165.432 13.8472 165.639 13.5034 165.901 13.2222C166.163 12.9409 166.46 12.7281 166.792 12.5835C167.124 12.439 167.468 12.3667 167.823 12.3667C168.276 12.3667 168.667 12.4449 168.995 12.6011C169.327 12.7574 169.598 12.9761 169.809 13.2574C170.02 13.5347 170.177 13.8628 170.278 14.2417C170.38 14.6167 170.43 15.0269 170.43 15.4722V15.9585H166.142C166.149 16.2289 166.19 16.4848 166.264 16.7261C166.35 16.9878 166.473 17.2183 166.634 17.4175C166.798 17.6167 166.995 17.773 167.225 17.8863C167.46 17.9995 167.725 18.0562 168.022 18.0562C168.405 18.0562 168.729 17.9781 168.995 17.8218C169.261 17.6656 169.493 17.4566 169.692 17.1949L170.348 17.7163C170.212 17.9234 170.038 18.1206 169.827 18.3081C169.616 18.4956 169.356 18.648 169.048 18.7652C168.743 18.8824 168.382 18.9409 167.964 18.9409ZM166.264 14.6167C166.225 14.7585 166.195 14.9109 166.174 15.0738H169.346V14.9917C169.331 14.7105 169.272 14.437 169.171 14.1714C169.073 13.9058 168.917 13.687 168.702 13.5152C168.487 13.3433 168.194 13.2574 167.823 13.2574C167.577 13.2574 167.35 13.3101 167.143 13.4156C166.936 13.5171 166.759 13.6695 166.61 13.8726C166.462 14.0757 166.346 14.3238 166.264 14.6167Z" fill="white"/>
<path d="M167.22 11.5464L168.356 9.82376H169.663L168.093 11.5464H167.22Z" fill="white"/>
<path d="M173.212 14.1788V18.8238H172.122V12.4839H173.153L173.185 13.174C173.392 12.9267 173.645 12.7338 173.944 12.5952C174.264 12.4429 174.636 12.3667 175.057 12.3667C175.354 12.3667 175.628 12.4097 175.878 12.4956C176.128 12.5777 176.345 12.7085 176.528 12.8882C176.666 13.0236 176.781 13.1878 176.873 13.3808C176.921 13.312 176.972 13.2454 177.026 13.1812C177.241 12.9312 177.505 12.7339 177.817 12.5894C178.13 12.4409 178.487 12.3667 178.889 12.3667C179.229 12.3667 179.53 12.4117 179.792 12.5015C180.057 12.5913 180.28 12.73 180.46 12.9175C180.643 13.1011 180.782 13.3374 180.876 13.6265C180.97 13.9156 181 14.2593 181 14.6577V18.8238H179.927V14.646C179.927 14.2906 179.87 14.0152 179.757 13.8199C179.647 13.6206 179.491 13.482 179.288 13.4038C179.089 13.3218 178.85 13.2808 178.573 13.2808C178.335 13.2808 178.124 13.3218 177.94 13.4038C177.757 13.4859 177.602 13.5992 177.477 13.7437C177.352 13.8843 177.257 14.0464 177.19 14.23C177.15 14.3487 177.122 14.4723 177.108 14.6008V18.8238H176.024V14.6519C176.024 14.3199 175.968 14.0542 175.854 13.855C175.745 13.6558 175.589 13.5113 175.386 13.4214C175.182 13.3277 174.944 13.2808 174.671 13.2808C174.35 13.2808 174.083 13.3374 173.868 13.4507C173.653 13.564 173.481 13.7202 173.352 13.9195C173.3 14.001 173.253 14.0875 173.212 14.1788Z" fill="white"/>
<path d="M76.95 23.8238V29.2635L77.5301 28.5699L79.4988 26.4839H80.8231L78.3526 29.1271L81.1102 32.8238H79.8328L77.6331 29.8833L76.95 30.5923V32.8238H75.8602V23.8238H76.95Z" fill="white"/>
<path fill-rule="evenodd" clip-rule="evenodd" d="M112.522 32.9409C112.081 32.9409 111.68 32.8667 111.321 32.7183C110.966 32.5659 110.659 32.3531 110.401 32.0796C110.147 31.8062 109.952 31.482 109.815 31.107C109.679 30.732 109.61 30.3218 109.61 29.8765V29.6304C109.61 29.1148 109.686 28.6558 109.839 28.2534C109.991 27.8472 110.198 27.5034 110.46 27.2222C110.721 26.9409 111.018 26.7281 111.35 26.5835C111.682 26.439 112.026 26.3667 112.382 26.3667C112.835 26.3667 113.225 26.4449 113.554 26.6011C113.886 26.7574 114.157 26.9761 114.368 27.2574C114.579 27.5347 114.735 27.8628 114.837 28.2417C114.938 28.6167 114.989 29.0269 114.989 29.4722V29.9585H110.701C110.708 30.2289 110.749 30.4848 110.823 30.7261C110.909 30.9878 111.032 31.2183 111.192 31.4175C111.356 31.6167 111.554 31.773 111.784 31.8863C112.018 31.9995 112.284 32.0562 112.581 32.0562C112.964 32.0562 113.288 31.9781 113.554 31.8218C113.819 31.6656 114.052 31.4566 114.251 31.1949L114.907 31.7163C114.77 31.9234 114.596 32.1206 114.386 32.3081C114.175 32.4956 113.915 32.648 113.606 32.7652C113.302 32.8824 112.94 32.9409 112.522 32.9409ZM110.823 28.6167C110.783 28.7585 110.753 28.9109 110.733 29.0738H113.905V28.9917C113.889 28.7105 113.831 28.437 113.729 28.1714C113.632 27.9058 113.475 27.687 113.261 27.5152C113.046 27.3433 112.753 27.2574 112.382 27.2574C112.136 27.2574 111.909 27.3101 111.702 27.4156C111.495 27.5171 111.317 27.6695 111.169 27.8726C111.02 28.0757 110.905 28.3238 110.823 28.6167Z" fill="white"/>
<path d="M111.778 25.5464L112.915 23.8238H114.221L112.651 25.5464H111.778Z" fill="white"/>
<path d="M117.776 27.2423V23.8238H116.692V32.8238H117.776V28.2994C117.845 28.1627 117.925 28.0361 118.016 27.9195C118.177 27.7202 118.366 27.564 118.585 27.4507C118.807 27.3374 119.054 27.2808 119.323 27.2808C119.596 27.2808 119.827 27.3277 120.014 27.4214C120.202 27.5113 120.345 27.6577 120.442 27.8609C120.54 28.0601 120.589 28.3257 120.589 28.6577V32.8238H121.679V28.6695C121.679 28.2515 121.632 27.898 121.538 27.6089C121.444 27.3159 121.307 27.0777 121.128 26.8941C120.952 26.7105 120.739 26.5777 120.489 26.4956C120.239 26.4097 119.958 26.3667 119.645 26.3667C119.263 26.3667 118.913 26.4429 118.596 26.5952C118.284 26.7437 118.014 26.9546 117.788 27.2281L117.776 27.2423Z" fill="white"/>
<path d="M135.518 28.3165V32.8238H134.434V26.4839H135.489L135.51 27.2116L135.518 27.1988C135.679 26.937 135.882 26.7339 136.128 26.5894C136.378 26.4409 136.675 26.3667 137.018 26.3667C137.096 26.3667 137.186 26.3765 137.288 26.396C137.389 26.4117 137.46 26.4292 137.499 26.4488L137.493 27.4566C137.403 27.437 137.317 27.4253 137.235 27.4214C137.157 27.4136 137.067 27.4097 136.966 27.4097C136.716 27.4097 136.495 27.4488 136.304 27.5269C136.112 27.605 135.95 27.7144 135.817 27.855C135.694 27.9854 135.594 28.1392 135.518 28.3165Z" fill="white"/>
<path d="M135.993 24.8257L135.108 23.8296H134.194V23.8882L135.659 25.4937H136.327L137.815 23.8882V23.8296H136.878L135.993 24.8257Z" fill="white"/>
<path d="M140.11 26.4839V32.8238H139.026V26.4839H140.11Z" fill="white"/>
<path d="M138.991 25.5581L140.128 23.8355H141.434L139.864 25.5581H138.991Z" fill="white"/>
<path d="M163.692 32.8238V26.4839H162.608V32.8238H163.692Z" fill="white"/>
<path d="M163.71 23.8355L162.573 25.5581H163.446L165.016 23.8355H163.71Z" fill="white"/>
<path d="M156.51 27.2727C156.521 27.2577 156.534 27.2428 156.546 27.2281C156.772 26.9546 157.042 26.7437 157.354 26.5952C157.671 26.4429 158.02 26.3667 158.403 26.3667C158.716 26.3667 158.997 26.4097 159.247 26.4956C159.497 26.5777 159.71 26.7105 159.886 26.8941C160.065 27.0777 160.202 27.3159 160.296 27.6089C160.389 27.898 160.436 28.2515 160.436 28.6695V32.8238H159.346V28.6577C159.346 28.3257 159.298 28.0601 159.2 27.8609C159.102 27.6577 158.96 27.5113 158.772 27.4214C158.585 27.3277 158.354 27.2808 158.081 27.2808C157.811 27.2808 157.565 27.3374 157.343 27.4507C157.124 27.564 156.934 27.7202 156.774 27.9195C156.683 28.0361 156.603 28.1627 156.534 28.2994V32.8238H155.45V26.4839H156.475L156.51 27.2727Z" fill="white"/>
<path fill-rule="evenodd" clip-rule="evenodd" d="M151.28 32.9409C150.839 32.9409 150.438 32.8667 150.079 32.7183C149.723 32.5659 149.417 32.3531 149.159 32.0796C148.905 31.8062 148.71 31.482 148.573 31.107C148.436 30.732 148.368 30.3218 148.368 29.8765V29.6304C148.368 29.1148 148.444 28.6558 148.596 28.2534C148.749 27.8472 148.956 27.5034 149.218 27.2222C149.479 26.9409 149.776 26.7281 150.108 26.5835C150.44 26.439 150.784 26.3667 151.139 26.3667C151.593 26.3667 151.983 26.4449 152.311 26.6011C152.643 26.7574 152.915 26.9761 153.126 27.2574C153.337 27.5347 153.493 27.8628 153.595 28.2417C153.696 28.6167 153.747 29.0269 153.747 29.4722V29.9585H149.459C149.466 30.2289 149.506 30.4848 149.581 30.7261C149.667 30.9878 149.79 31.2183 149.95 31.4175C150.114 31.6167 150.311 31.773 150.542 31.8863C150.776 31.9995 151.042 32.0562 151.339 32.0562C151.721 32.0562 152.046 31.9781 152.311 31.8218C152.577 31.6656 152.809 31.4566 153.009 31.1949L153.665 31.7163C153.528 31.9234 153.354 32.1206 153.143 32.3081C152.932 32.4956 152.673 32.648 152.364 32.7652C152.059 32.8824 151.698 32.9409 151.28 32.9409ZM149.491 29.0738H152.663V28.9917C152.647 28.7105 152.589 28.437 152.487 28.1714C152.389 27.9058 152.233 27.687 152.018 27.5152C151.804 27.3433 151.511 27.2574 151.139 27.2574C150.893 27.2574 150.667 27.3101 150.46 27.4156C150.253 27.5171 150.075 27.6695 149.927 27.8726C149.778 28.0757 149.663 28.3238 149.581 28.6167C149.541 28.7585 149.511 28.9109 149.491 29.0738Z" fill="white"/>
<path d="M147.075 32.8238V31.9331H143.38L146.905 27.2515V26.4839H142.095V27.3804H145.54L142.048 32.0269V32.8238H147.075Z" fill="white"/>
<path fill-rule="evenodd" clip-rule="evenodd" d="M123.452 29.7242V29.5894C123.452 29.1324 123.518 28.7085 123.651 28.3179C123.784 27.9234 123.975 27.5816 124.225 27.2925C124.475 26.9995 124.778 26.773 125.134 26.6128C125.489 26.4488 125.888 26.3667 126.329 26.3667C126.774 26.3667 127.175 26.4488 127.53 26.6128C127.889 26.773 128.194 26.9995 128.444 27.2925C128.698 27.5816 128.891 27.9234 129.024 28.3179C129.157 28.7085 129.223 29.1324 129.223 29.5894V29.7242C129.223 30.1812 129.157 30.605 129.024 30.9956C128.891 31.3863 128.698 31.7281 128.444 32.021C128.194 32.3101 127.891 32.5367 127.536 32.7007C127.184 32.8609 126.786 32.9409 126.341 32.9409C125.895 32.9409 125.495 32.8609 125.139 32.7007C124.784 32.5367 124.479 32.3101 124.225 32.021C123.975 31.7281 123.784 31.3863 123.651 30.9956C123.518 30.605 123.452 30.1812 123.452 29.7242ZM124.536 29.5894V29.7242C124.536 30.0406 124.573 30.3394 124.647 30.6206C124.721 30.898 124.833 31.1441 124.981 31.3589C125.134 31.5738 125.323 31.7437 125.55 31.8687C125.776 31.9898 126.04 32.0503 126.341 32.0503C126.638 32.0503 126.897 31.9898 127.12 31.8687C127.346 31.7437 127.534 31.5738 127.682 31.3589C127.831 31.1441 127.942 30.898 128.016 30.6206C128.095 30.3394 128.134 30.0406 128.134 29.7242V29.5894C128.134 29.2769 128.095 28.982 128.016 28.7046C127.942 28.4234 127.829 28.1753 127.677 27.9605C127.528 27.7417 127.341 27.5699 127.114 27.4449C126.891 27.3199 126.63 27.2574 126.329 27.2574C126.032 27.2574 125.77 27.3199 125.544 27.4449C125.321 27.5699 125.134 27.7417 124.981 27.9605C124.833 28.1753 124.721 28.4234 124.647 28.7046C124.573 28.982 124.536 29.2769 124.536 29.5894Z" fill="white"/>
<path d="M105.388 32.8238L103.091 26.4839H104.204L105.814 31.3412L107.386 26.4839H108.493L106.214 32.8238H105.388Z" fill="white"/>
<path fill-rule="evenodd" clip-rule="evenodd" d="M96.2488 29.7242V29.5894C96.2488 29.1324 96.3152 28.7085 96.4481 28.3179C96.5809 27.9234 96.7723 27.5816 97.0223 27.2925C97.2723 26.9995 97.575 26.773 97.9305 26.6128C98.2859 26.4488 98.6844 26.3667 99.1258 26.3667C99.5711 26.3667 99.9715 26.4488 100.327 26.6128C100.686 26.773 100.991 26.9995 101.241 27.2925C101.495 27.5816 101.688 27.9234 101.821 28.3179C101.954 28.7085 102.02 29.1324 102.02 29.5894V29.7242C102.02 30.1812 101.954 30.605 101.821 30.9956C101.688 31.3863 101.495 31.7281 101.241 32.021C100.991 32.3101 100.688 32.5367 100.333 32.7007C99.9813 32.8609 99.5828 32.9409 99.1375 32.9409C98.6922 32.9409 98.2918 32.8609 97.9363 32.7007C97.5809 32.5367 97.2762 32.3101 97.0223 32.021C96.7723 31.7281 96.5809 31.3863 96.4481 30.9956C96.3152 30.605 96.2488 30.1812 96.2488 29.7242ZM97.3328 29.5894V29.7242C97.3328 30.0406 97.3699 30.3394 97.4442 30.6206C97.5184 30.898 97.6297 31.1441 97.7781 31.3589C97.9305 31.5738 98.1199 31.7437 98.3465 31.8687C98.5731 31.9898 98.8367 32.0503 99.1375 32.0503C99.4344 32.0503 99.6942 31.9898 99.9168 31.8687C100.143 31.7437 100.331 31.5738 100.479 31.3589C100.628 31.1441 100.739 30.898 100.813 30.6206C100.891 30.3394 100.93 30.0406 100.93 29.7242V29.5894C100.93 29.2769 100.891 28.982 100.813 28.7046C100.739 28.4234 100.626 28.1753 100.473 27.9605C100.325 27.7417 100.138 27.5699 99.9109 27.4449C99.6883 27.3199 99.4266 27.2574 99.1258 27.2574C98.8289 27.2574 98.5672 27.3199 98.3406 27.4449C98.118 27.5699 97.9305 27.7417 97.7781 27.9605C97.6297 28.1753 97.5184 28.4234 97.4442 28.7046C97.3699 28.982 97.3328 29.2769 97.3328 29.5894Z" fill="white"/>
<path d="M94.9617 32.8238V31.9331H91.267L94.7918 27.2515V26.4839H89.9813V27.3804H93.4266L89.9344 32.0269V32.8238H94.9617Z" fill="white"/>
<path d="M88.0613 26.4839V32.8238H86.9715V26.4839H88.0613Z" fill="white"/>
<path d="M86.8895 24.8023C86.8895 24.6265 86.9422 24.4781 87.0477 24.357C87.157 24.2359 87.3172 24.1753 87.5281 24.1753C87.7352 24.1753 87.8934 24.2359 88.0027 24.357C88.116 24.4781 88.1727 24.6265 88.1727 24.8023C88.1727 24.9702 88.116 25.1148 88.0027 25.2359C87.8934 25.3531 87.7352 25.4117 87.5281 25.4117C87.3172 25.4117 87.157 25.3531 87.0477 25.2359C86.9422 25.1148 86.8895 24.9702 86.8895 24.8023Z" fill="white"/>
<path d="M83.4637 28.3165V32.8238H82.3797V26.4839H83.4344L83.4558 27.2116L83.4637 27.1988C83.6238 26.937 83.827 26.7339 84.0731 26.5894C84.3231 26.4409 84.6199 26.3667 84.9637 26.3667C85.0418 26.3667 85.1317 26.3765 85.2332 26.396C85.3348 26.4117 85.4051 26.4292 85.4442 26.4488L85.4383 27.4566C85.3484 27.437 85.2625 27.4253 85.1805 27.4214C85.1024 27.4136 85.0125 27.4097 84.9109 27.4097C84.6609 27.4097 84.4402 27.4488 84.2488 27.5269C84.0574 27.605 83.8953 27.7144 83.7625 27.855C83.6394 27.9854 83.5398 28.1392 83.4637 28.3165Z" fill="white"/>
<path d="M163.624 13.3159V12.4839H162.44V10.9429H161.356V12.4839H160.196V13.3159H161.356V17.2476C161.356 17.6695 161.421 18.0054 161.55 18.2554C161.682 18.5015 161.86 18.6773 162.083 18.7827C162.305 18.8882 162.55 18.9409 162.815 18.9409C163.011 18.9409 163.177 18.9273 163.313 18.8999C163.454 18.8765 163.567 18.8511 163.653 18.8238L163.647 17.939C163.596 17.9507 163.52 17.9663 163.419 17.9859C163.321 18.0015 163.227 18.0093 163.138 18.0093C163.016 18.0093 162.903 17.9917 162.798 17.9566C162.692 17.9214 162.606 17.8492 162.54 17.7398C162.473 17.6304 162.44 17.4683 162.44 17.2534V13.3159H163.624Z" fill="white"/>
<path d="M158.024 17.1421C158.024 16.9859 157.989 16.8413 157.919 16.7085C157.852 16.5718 157.714 16.4488 157.503 16.3394C157.296 16.2261 156.983 16.1284 156.565 16.0464C156.214 15.9722 155.895 15.8843 155.61 15.7827C155.329 15.6812 155.089 15.5581 154.889 15.4136C154.694 15.2691 154.544 15.0992 154.438 14.9038C154.333 14.7085 154.28 14.48 154.28 14.2183C154.28 13.9683 154.335 13.732 154.444 13.5093C154.557 13.2867 154.716 13.0894 154.919 12.9175C155.126 12.7456 155.374 12.6109 155.663 12.5132C155.952 12.4156 156.274 12.3667 156.63 12.3667C157.138 12.3667 157.571 12.4566 157.93 12.6363C158.29 12.8159 158.565 13.0562 158.757 13.357C158.948 13.6538 159.044 13.9839 159.044 14.3472H157.96C157.96 14.1714 157.907 14.0015 157.802 13.8374C157.7 13.6695 157.55 13.5308 157.35 13.4214C157.155 13.312 156.915 13.2574 156.63 13.2574C156.329 13.2574 156.085 13.3042 155.897 13.398C155.714 13.4878 155.579 13.6031 155.493 13.7437C155.411 13.8843 155.37 14.0327 155.37 14.189C155.37 14.3062 155.389 14.4117 155.429 14.5054C155.471 14.5952 155.546 14.6792 155.651 14.7574C155.757 14.8316 155.905 14.9019 156.096 14.9683C156.288 15.0347 156.532 15.1011 156.829 15.1675C157.348 15.2847 157.776 15.4253 158.112 15.5894C158.448 15.7534 158.698 15.9546 158.862 16.1929C159.026 16.4312 159.108 16.7202 159.108 17.0601C159.108 17.3374 159.05 17.5913 158.932 17.8218C158.819 18.0523 158.653 18.2515 158.434 18.4195C158.22 18.5835 157.962 18.7124 157.661 18.8062C157.364 18.896 157.03 18.9409 156.659 18.9409C156.1 18.9409 155.628 18.8413 155.241 18.6421C154.854 18.4429 154.561 18.1851 154.362 17.8687C154.163 17.5523 154.063 17.2183 154.063 16.8667H155.153C155.169 17.1636 155.255 17.3999 155.411 17.5757C155.567 17.7476 155.759 17.8706 155.985 17.9449C156.212 18.0152 156.436 18.0503 156.659 18.0503C156.956 18.0503 157.204 18.0113 157.403 17.9331C157.606 17.855 157.761 17.7476 157.866 17.6109C157.971 17.4742 158.024 17.3179 158.024 17.1421Z" fill="white"/>
<path d="M149.777 18.7554L147.514 12.4839H148.698L150.285 17.2272L151.757 12.4839H152.917L150.374 19.8023C150.315 19.9585 150.237 20.1265 150.139 20.3062C150.046 20.4898 149.925 20.6636 149.776 20.8277C149.628 20.9917 149.448 21.1245 149.237 21.2261C149.03 21.3316 148.782 21.3843 148.493 21.3843C148.407 21.3843 148.298 21.3726 148.165 21.3492C148.032 21.3257 147.938 21.3062 147.884 21.2906L147.878 20.4117C147.909 20.4156 147.958 20.4195 148.024 20.4234C148.095 20.4312 148.143 20.4351 148.171 20.4351C148.417 20.4351 148.626 20.4019 148.798 20.3355C148.97 20.273 149.114 20.1656 149.231 20.0132C149.352 19.8648 149.456 19.6597 149.542 19.398L149.777 18.7554Z" fill="white"/>
<path d="M145.266 17.1421C145.266 16.9859 145.231 16.8413 145.161 16.7085C145.095 16.5718 144.956 16.4488 144.745 16.3394C144.538 16.2261 144.225 16.1284 143.807 16.0464C143.456 15.9722 143.138 15.8843 142.852 15.7827C142.571 15.6812 142.331 15.5581 142.132 15.4136C141.936 15.2691 141.786 15.0992 141.68 14.9038C141.575 14.7085 141.522 14.48 141.522 14.2183C141.522 13.9683 141.577 13.732 141.686 13.5093C141.8 13.2867 141.958 13.0894 142.161 12.9175C142.368 12.7456 142.616 12.6109 142.905 12.5132C143.194 12.4156 143.516 12.3667 143.872 12.3667C144.38 12.3667 144.813 12.4566 145.173 12.6363C145.532 12.8159 145.807 13.0562 145.999 13.357C146.19 13.6538 146.286 13.9839 146.286 14.3472H145.202C145.202 14.1714 145.149 14.0015 145.044 13.8374C144.942 13.6695 144.792 13.5308 144.593 13.4214C144.397 13.312 144.157 13.2574 143.872 13.2574C143.571 13.2574 143.327 13.3042 143.139 13.398C142.956 13.4878 142.821 13.6031 142.735 13.7437C142.653 13.8843 142.612 14.0327 142.612 14.189C142.612 14.3062 142.632 14.4117 142.671 14.5054C142.714 14.5952 142.788 14.6792 142.893 14.7574C142.999 14.8316 143.147 14.9019 143.339 14.9683C143.53 15.0347 143.774 15.1011 144.071 15.1675C144.591 15.2847 145.018 15.4253 145.354 15.5894C145.69 15.7534 145.94 15.9546 146.104 16.1929C146.268 16.4312 146.35 16.7202 146.35 17.0601C146.35 17.3374 146.292 17.5913 146.175 17.8218C146.061 18.0523 145.895 18.2515 145.677 18.4195C145.462 18.5835 145.204 18.7124 144.903 18.8062C144.606 18.896 144.272 18.9409 143.901 18.9409C143.343 18.9409 142.87 18.8413 142.483 18.6421C142.096 18.4429 141.804 18.1851 141.604 17.8687C141.405 17.5523 141.305 17.2183 141.305 16.8667H142.395C142.411 17.1636 142.497 17.3999 142.653 17.5757C142.809 17.7476 143.001 17.8706 143.227 17.9449C143.454 18.0152 143.679 18.0503 143.901 18.0503C144.198 18.0503 144.446 18.0113 144.645 17.9331C144.848 17.855 145.003 17.7476 145.108 17.6109C145.214 17.4742 145.266 17.3179 145.266 17.1421Z" fill="white"/>
<path d="M135.919 18.8238V12.4839H134.835V18.8238H135.919Z" fill="white"/>
<path d="M135.936 9.83548L134.8 11.5581H135.673L137.243 9.83548H135.936Z" fill="white"/>
<path d="M128.772 13.2281C128.76 13.2428 128.748 13.2577 128.736 13.2727L128.702 12.4839H127.677V18.8238H128.761V14.2994C128.829 14.1627 128.909 14.0361 129.001 13.9195C129.161 13.7202 129.35 13.564 129.569 13.4507C129.792 13.3374 130.038 13.2808 130.307 13.2808C130.581 13.2808 130.811 13.3277 130.999 13.4214C131.186 13.5113 131.329 13.6577 131.427 13.8609C131.524 14.0601 131.573 14.3257 131.573 14.6577V18.8238H132.663V14.6695C132.663 14.2515 132.616 13.898 132.522 13.6089C132.429 13.3159 132.292 13.0777 132.112 12.8941C131.936 12.7105 131.723 12.5777 131.473 12.4956C131.223 12.4097 130.942 12.3667 130.63 12.3667C130.247 12.3667 129.897 12.4429 129.581 12.5952C129.268 12.7437 128.999 12.9546 128.772 13.2281Z" fill="white"/>
<path d="M124.21 17.8921C123.991 17.9976 123.753 18.0503 123.495 18.0503C123.159 18.0503 122.878 17.9859 122.651 17.857C122.429 17.7242 122.251 17.5484 122.118 17.3296C121.989 17.1109 121.897 16.8667 121.843 16.5972C121.788 16.3277 121.761 16.0542 121.761 15.7769V15.5308C121.761 15.2534 121.788 14.982 121.843 14.7163C121.901 14.4468 121.995 14.2027 122.124 13.9839C122.257 13.7613 122.434 13.5855 122.657 13.4566C122.884 13.3238 123.163 13.2574 123.495 13.2574C123.784 13.2574 124.036 13.3218 124.251 13.4507C124.47 13.5757 124.641 13.7437 124.766 13.9546C124.895 14.1656 124.97 14.4019 124.989 14.6636H126.02C126.001 14.2261 125.884 13.8355 125.669 13.4917C125.458 13.1441 125.167 12.8706 124.796 12.6714C124.425 12.4683 123.991 12.3667 123.495 12.3667C123.018 12.3667 122.602 12.4507 122.247 12.6187C121.895 12.7867 121.602 13.0171 121.368 13.3101C121.138 13.6031 120.964 13.9409 120.846 14.3238C120.733 14.7027 120.677 15.105 120.677 15.5308V15.7769C120.677 16.2027 120.733 16.607 120.846 16.9898C120.964 17.3687 121.138 17.7046 121.368 17.9976C121.602 18.2906 121.895 18.521 122.247 18.689C122.602 18.857 123.018 18.9409 123.495 18.9409C123.944 18.9409 124.356 18.8433 124.731 18.648C125.106 18.4488 125.409 18.189 125.639 17.8687C125.874 17.5445 126.001 17.1949 126.02 16.8199H124.989C124.97 17.0581 124.889 17.271 124.749 17.4585C124.608 17.6421 124.429 17.7867 124.21 17.8921Z" fill="white"/>
<path d="M123.249 10.8257L122.364 9.82962H121.45V9.88821L122.915 11.4937H123.583L125.071 9.88821V9.82962H124.134L123.249 10.8257Z" fill="white"/>
<path fill-rule="evenodd" clip-rule="evenodd" d="M117.591 18.314C117.649 18.2612 117.704 18.2077 117.756 18.1536C117.762 18.2098 117.769 18.2672 117.778 18.3257C117.809 18.5327 117.852 18.6988 117.907 18.8238H119.038V18.73C118.964 18.5581 118.907 18.3531 118.868 18.1148C118.833 17.8765 118.815 17.6519 118.815 17.4409V14.4878C118.815 14.0152 118.714 13.6226 118.511 13.3101C118.311 12.9937 118.034 12.7574 117.679 12.6011C117.327 12.4449 116.921 12.3667 116.46 12.3667C116.077 12.3667 115.729 12.4214 115.417 12.5308C115.108 12.6363 114.843 12.7808 114.62 12.9644C114.401 13.1441 114.233 13.3452 114.116 13.5679C113.999 13.7906 113.94 14.0152 113.94 14.2417H115.024C115.024 14.0659 115.081 13.9019 115.194 13.7495C115.311 13.5972 115.471 13.4742 115.675 13.3804C115.882 13.2867 116.122 13.2398 116.395 13.2398C116.688 13.2398 116.934 13.2906 117.134 13.3921C117.333 13.4937 117.481 13.6382 117.579 13.8257C117.68 14.0093 117.731 14.2261 117.731 14.4761V14.98H116.659C116.225 14.98 115.833 15.0249 115.481 15.1148C115.13 15.2046 114.829 15.3374 114.579 15.5132C114.329 15.6851 114.138 15.9019 114.005 16.1636C113.872 16.4214 113.805 16.7202 113.805 17.0601C113.805 17.4117 113.893 17.73 114.069 18.0152C114.249 18.2964 114.499 18.521 114.819 18.689C115.143 18.857 115.52 18.9409 115.95 18.9409C116.294 18.9409 116.602 18.8824 116.876 18.7652C117.153 18.6441 117.391 18.4937 117.591 18.314ZM117.731 15.7417V17.0413C117.694 17.1151 117.647 17.1897 117.591 17.2652C117.442 17.4683 117.241 17.6402 116.987 17.7808C116.733 17.9214 116.44 17.9917 116.108 17.9917C115.843 17.9917 115.618 17.9449 115.434 17.8511C115.255 17.7534 115.12 17.6226 115.03 17.4585C114.94 17.2945 114.895 17.1128 114.895 16.9136C114.895 16.7183 114.938 16.5484 115.024 16.4038C115.11 16.2554 115.235 16.1324 115.399 16.0347C115.563 15.937 115.766 15.8648 116.009 15.8179C116.251 15.7671 116.526 15.7417 116.835 15.7417H117.731Z" fill="white"/>
<path d="M104.11 14.1788V18.8238H103.02V12.4839H104.052L104.084 13.174C104.291 12.9267 104.544 12.7338 104.843 12.5952C105.163 12.4429 105.534 12.3667 105.956 12.3667C106.253 12.3667 106.526 12.4097 106.776 12.4956C107.026 12.5777 107.243 12.7085 107.427 12.8882C107.565 13.0236 107.68 13.1878 107.772 13.3808C107.819 13.312 107.87 13.2454 107.925 13.1812C108.139 12.9312 108.403 12.7339 108.716 12.5894C109.028 12.4409 109.386 12.3667 109.788 12.3667C110.128 12.3667 110.429 12.4117 110.69 12.5015C110.956 12.5913 111.179 12.73 111.358 12.9175C111.542 13.1011 111.68 13.3374 111.774 13.6265C111.868 13.9156 111.915 14.2593 111.915 14.6577V18.8238H110.825V14.646C110.825 14.2906 110.768 14.0152 110.655 13.8199C110.546 13.6206 110.389 13.482 110.186 13.4038C109.987 13.3218 109.749 13.2808 109.471 13.2808C109.233 13.2808 109.022 13.3218 108.839 13.4038C108.655 13.4859 108.501 13.5992 108.376 13.7437C108.251 13.8843 108.155 14.0464 108.089 14.23C108.048 14.3487 108.021 14.4723 108.007 14.6008V18.8238H106.923V14.6519C106.923 14.3199 106.866 14.0542 106.753 13.855C106.643 13.6558 106.487 13.5113 106.284 13.4214C106.081 13.3277 105.843 13.2808 105.569 13.2808C105.249 13.2808 104.981 13.3374 104.766 13.4507C104.552 13.564 104.38 13.7202 104.251 13.9195C104.198 14.001 104.151 14.0875 104.11 14.1788Z" fill="white"/>
<path d="M99.6121 18.8238V14.3165C99.6882 14.1392 99.7878 13.9854 99.9109 13.855C100.044 13.7144 100.206 13.605 100.397 13.5269C100.589 13.4488 100.809 13.4097 101.059 13.4097C101.161 13.4097 101.251 13.4136 101.329 13.4214C101.411 13.4253 101.497 13.437 101.587 13.4566L101.593 12.4488C101.554 12.4292 101.483 12.4117 101.382 12.396C101.28 12.3765 101.19 12.3667 101.112 12.3667C100.768 12.3667 100.471 12.4409 100.221 12.5894C99.9754 12.7339 99.7723 12.937 99.6121 13.1988L99.6042 13.2116L99.5828 12.4839H98.5281V18.8238H99.6121Z" fill="white"/>
<path fill-rule="evenodd" clip-rule="evenodd" d="M90.9598 15.5894V15.7242C90.9598 16.1812 91.0262 16.605 91.159 16.9956C91.2918 17.3863 91.4832 17.7281 91.7332 18.021C91.9871 18.3101 92.2918 18.5367 92.6473 18.7007C93.0027 18.8609 93.4031 18.9409 93.8484 18.9409C94.2938 18.9409 94.6922 18.8609 95.0438 18.7007C95.3992 18.5367 95.702 18.3101 95.952 18.021C96.2059 17.7281 96.3992 17.3863 96.532 16.9956C96.6649 16.605 96.7313 16.1812 96.7313 15.7242V15.5894C96.7313 15.1324 96.6649 14.7085 96.532 14.3179C96.3992 13.9234 96.2059 13.5816 95.952 13.2925C95.702 12.9995 95.3973 12.773 95.0379 12.6128C94.6824 12.4488 94.282 12.3667 93.8367 12.3667C93.3953 12.3667 92.9969 12.4488 92.6414 12.6128C92.2859 12.773 91.9832 12.9995 91.7332 13.2925C91.4832 13.5816 91.2918 13.9234 91.159 14.3179C91.0262 14.7085 90.9598 15.1324 90.9598 15.5894ZM92.0438 15.7242V15.5894C92.0438 15.2769 92.0809 14.982 92.1551 14.7046C92.2293 14.4234 92.3406 14.1753 92.4891 13.9605C92.6414 13.7417 92.8289 13.5699 93.0516 13.4449C93.2781 13.3199 93.5399 13.2574 93.8367 13.2574C94.1375 13.2574 94.3992 13.3199 94.6219 13.4449C94.8484 13.5699 95.0359 13.7417 95.1844 13.9605C95.3367 14.1753 95.45 14.4234 95.5242 14.7046C95.6024 14.982 95.6414 15.2769 95.6414 15.5894V15.7242C95.6414 16.0406 95.6024 16.3394 95.5242 16.6206C95.45 16.898 95.3387 17.1441 95.1902 17.3589C95.0418 17.5738 94.8543 17.7437 94.6277 17.8687C94.4051 17.9898 94.1453 18.0503 93.8484 18.0503C93.5477 18.0503 93.284 17.9898 93.0574 17.8687C92.8309 17.7437 92.6414 17.5738 92.4891 17.3589C92.3406 17.1441 92.2293 16.898 92.1551 16.6206C92.0809 16.3394 92.0438 16.0406 92.0438 15.7242Z" fill="white"/>
<path d="M80.6267 13.2727C80.6386 13.2577 80.6507 13.2428 80.6629 13.2281C80.8895 12.9546 81.159 12.7437 81.4715 12.5952C81.7879 12.4429 82.1375 12.3667 82.5203 12.3667C82.8328 12.3667 83.1141 12.4097 83.3641 12.4956C83.6141 12.5777 83.827 12.7105 84.0027 12.8941C84.1824 13.0777 84.3192 13.3159 84.4129 13.6089C84.5067 13.898 84.5535 14.2515 84.5535 14.6695V18.8238H83.4637V14.6577C83.4637 14.3257 83.4149 14.0601 83.3172 13.8609C83.2195 13.6577 83.077 13.5113 82.8895 13.4214C82.702 13.3277 82.4715 13.2808 82.1981 13.2808C81.9285 13.2808 81.6824 13.3374 81.4598 13.4507C81.241 13.564 81.0516 13.7202 80.8914 13.9195C80.8 14.0361 80.7199 14.1627 80.6512 14.2994V18.8238H79.5672V12.4839H80.5926L80.6267 13.2727Z" fill="white"/>
<path d="M77.2371 10.2925V18.8238H76.1063V10.2925H77.2371Z" fill="white"/>
<path d="M54.8756 26.9031V32.8238H51.6626V22.5023H54.6866L54.5801 25.0748H54.6866C54.8546 24.2208 55.1801 23.5523 55.6631 23.0693C56.1531 22.5793 56.8426 22.3343 57.7316 22.3343C57.8856 22.3343 58.0256 22.3448 58.1516 22.3658C58.2846 22.3868 58.4106 22.4113 58.5296 22.4393L58.6871 25.6838C58.5401 25.6418 58.3686 25.6138 58.1726 25.5998C57.9766 25.5788 57.7771 25.5683 57.5741 25.5683C56.8881 25.5683 56.3106 25.6978 55.8416 25.9568C55.4157 26.1856 55.0937 26.501 54.8756 26.9031Z" fill="white"/>
<path d="M45.8128 32.8238L42.7678 28.3718H42.4318V32.8238H39.2398V18.9533H42.4318V26.4818H42.7678L45.7288 22.5023H49.4143L45.7103 27.3352L49.5613 32.8238H45.8128Z" fill="white"/>
<path d="M29.917 32.8553C30.575 33.0023 31.3135 33.0758 32.1325 33.0758C33.6795 33.0758 34.8275 32.8063 35.5765 32.2673C36.3255 31.7213 36.7 30.8918 36.7 29.7788V29.6843C36.7 29.0543 36.5775 28.5503 36.3325 28.1723C36.0875 27.7873 35.699 27.4758 35.167 27.2378C34.635 26.9928 33.935 26.7758 33.067 26.5868C32.507 26.4538 32.0765 26.3348 31.7755 26.2298C31.4815 26.1248 31.2785 26.0128 31.1665 25.8938C31.0545 25.7748 30.9985 25.6313 30.9985 25.4633V25.4318C30.9985 25.2778 31.044 25.1483 31.135 25.0433C31.233 24.9383 31.3975 24.8578 31.6285 24.8018C31.8665 24.7458 32.192 24.7178 32.605 24.7178C33.284 24.7178 33.9315 24.7913 34.5475 24.9383C35.1705 25.0853 35.734 25.2708 36.238 25.4948L35.965 22.9853C35.531 22.7823 34.9955 22.6073 34.3585 22.4603C33.7215 22.3133 33.004 22.2398 32.206 22.2398C30.792 22.2398 29.721 22.4953 28.993 23.0063C28.265 23.5103 27.901 24.2733 27.901 25.2953V25.3793C27.901 25.9323 28.006 26.4118 28.216 26.8178C28.433 27.2168 28.7935 27.5563 29.2975 27.8363C29.8015 28.1093 30.484 28.3473 31.345 28.5503C31.919 28.6833 32.3635 28.7988 32.6785 28.8968C33.0005 28.9948 33.2245 29.1068 33.3505 29.2328C33.4835 29.3518 33.55 29.5058 33.55 29.6948V29.7368C33.55 30.0098 33.4205 30.2128 33.1615 30.3458C32.9095 30.4718 32.479 30.5348 31.87 30.5348C31.107 30.5348 30.3965 30.4473 29.7385 30.2723C29.0875 30.0903 28.4925 29.8873 27.9535 29.6633L28.2265 32.3618C28.6955 32.5508 29.259 32.7153 29.917 32.8553Z" fill="white"/>
<path d="M22.1155 32.8238V22.5023H25.3285V32.8238H22.1155Z" fill="white"/>
<path d="M23.722 21.5258C23.12 21.5258 22.6825 21.3893 22.4095 21.1163C22.1365 20.8363 22 20.4618 22 19.9928V19.9193C22 19.4503 22.1365 19.0793 22.4095 18.8063C22.6825 18.5333 23.12 18.3968 23.722 18.3968C24.31 18.3968 24.7405 18.5333 25.0135 18.8063C25.2935 19.0793 25.4335 19.4503 25.4335 19.9193V19.9928C25.4335 20.4688 25.2935 20.8433 25.0135 21.1163C24.7405 21.3893 24.31 21.5258 23.722 21.5258Z" fill="white"/>
<path d="M51.7002 18.451L53.5063 21.4H56.7512L58.5573 18.451V18.4H56.2614L55.1798 19.8796H55.0879L54.0063 18.4H51.7002V18.451Z" fill="white"/>
</g>
</g>
</svg>
